<mxfile host="65bd71144e">
    <diagram id="YO9QdF3k3n2qPGPZ6pJF" name="Page-1">
        <mxGraphModel dx="1293" dy="926" grid="1" gridSize="10" guides="1" tooltips="1" connect="1" arrows="1" fold="1" page="1" pageScale="1" pageWidth="827" pageHeight="1169" math="0" shadow="0">
            <root>
                <mxCell id="0"/>
                <mxCell id="1" parent="0"/>
                <mxCell id="2" value="&lt;font style=&quot;font-size: 20px;&quot; face=&quot;Courier New&quot;&gt;type&lt;/font&gt;" style="rounded=1;whiteSpace=wrap;html=1;" parent="1" vertex="1">
                    <mxGeometry x="210" y="40" width="130" height="40" as="geometry"/>
                </mxCell>
                <mxCell id="3" value="&lt;font face=&quot;Courier New&quot;&gt;&lt;span style=&quot;font-size: 20px;&quot;&gt;Class&lt;/span&gt;&lt;/font&gt;" style="rounded=1;whiteSpace=wrap;html=1;" parent="1" vertex="1">
                    <mxGeometry x="360" y="120" width="130" height="40" as="geometry"/>
                </mxCell>
                <mxCell id="4" value="&lt;font style=&quot;font-size: 20px;&quot; face=&quot;Courier New&quot;&gt;SubClass&lt;/font&gt;&lt;span style=&quot;color: rgba(0, 0, 0, 0); font-family: monospace; font-size: 0px; text-align: start;&quot;&gt;%3CmxGraphModel%3E%3Croot%3E%3CmxCell%20id%3D%220%22%2F%3E%3CmxCell%20id%3D%221%22%20parent%3D%220%22%2F%3E%3CmxCell%20id%3D%222%22%20value%3D%22%26lt%3Bfont%20style%3D%26quot%3Bfont-size%3A%2020px%3B%26quot%3B%20face%3D%26quot%3BCourier%20New%26quot%3B%26gt%3Btype%26lt%3B%2Ffont%26gt%3B%22%20style%3D%22rounded%3D1%3BwhiteSpace%3Dwrap%3Bhtml%3D1%3B%22%20vertex%3D%221%22%20parent%3D%221%22%3E%3CmxGeometry%20x%3D%22210%22%20y%3D%2240%22%20width%3D%22130%22%20height%3D%2240%22%20as%3D%22geometry%22%2F%3E%3C%2FmxCell%3E%3C%2Froot%3E%3C%2FmxGraphModel%3E&lt;/span&gt;" style="rounded=1;whiteSpace=wrap;html=1;" parent="1" vertex="1">
                    <mxGeometry x="360" y="200" width="130" height="40" as="geometry"/>
                </mxCell>
                <mxCell id="5" value="&lt;font face=&quot;Courier New&quot;&gt;&lt;span style=&quot;font-size: 20px;&quot;&gt;instance&lt;/span&gt;&lt;/font&gt;" style="rounded=1;whiteSpace=wrap;html=1;" parent="1" vertex="1">
                    <mxGeometry x="360" y="280" width="130" height="40" as="geometry"/>
                </mxCell>
                <mxCell id="6" value="" style="endArrow=classic;html=1;fontFamily=Courier New;fontSize=20;exitX=0.5;exitY=0;exitDx=0;exitDy=0;entryX=0.5;entryY=1;entryDx=0;entryDy=0;strokeColor=#3333FF;" parent="1" source="5" target="4" edge="1">
                    <mxGeometry width="50" height="50" relative="1" as="geometry">
                        <mxPoint x="390" y="350" as="sourcePoint"/>
                        <mxPoint x="440" y="300" as="targetPoint"/>
                    </mxGeometry>
                </mxCell>
                <mxCell id="7" value="" style="endArrow=classic;html=1;fontFamily=Courier New;fontSize=20;exitX=0.012;exitY=0.042;exitDx=0;exitDy=0;strokeColor=#3333FF;exitPerimeter=0;" parent="1" source="4" target="2" edge="1">
                    <mxGeometry width="50" height="50" relative="1" as="geometry">
                        <mxPoint x="355" y="200" as="sourcePoint"/>
                        <mxPoint x="355" y="160" as="targetPoint"/>
                    </mxGeometry>
                </mxCell>
                <mxCell id="8" value="" style="endArrow=classic;html=1;fontFamily=Courier New;fontSize=20;exitX=0.015;exitY=0.043;exitDx=0;exitDy=0;strokeColor=#3333FF;exitPerimeter=0;entryX=0.987;entryY=0.981;entryDx=0;entryDy=0;entryPerimeter=0;" parent="1" source="3" target="2" edge="1">
                    <mxGeometry width="50" height="50" relative="1" as="geometry">
                        <mxPoint x="371.55999999999995" y="211.68000000000006" as="sourcePoint"/>
                        <mxPoint x="297.21908526256357" y="90" as="targetPoint"/>
                    </mxGeometry>
                </mxCell>
                <mxCell id="10" value="" style="endArrow=classic;html=1;fontFamily=Courier New;fontSize=20;exitX=0.5;exitY=0;exitDx=0;exitDy=0;entryX=0.5;entryY=1;entryDx=0;entryDy=0;strokeColor=#006600;" parent="1" edge="1">
                    <mxGeometry width="50" height="50" relative="1" as="geometry">
                        <mxPoint x="425" y="200" as="sourcePoint"/>
                        <mxPoint x="425" y="160" as="targetPoint"/>
                    </mxGeometry>
                </mxCell>
                <mxCell id="11" value="&lt;font style=&quot;font-size: 20px;&quot; face=&quot;Courier New&quot;&gt;object&lt;/font&gt;" style="rounded=1;whiteSpace=wrap;html=1;" parent="1" vertex="1">
                    <mxGeometry x="510" y="40" width="130" height="40" as="geometry"/>
                </mxCell>
                <mxCell id="12" value="" style="endArrow=classic;html=1;fontFamily=Courier New;fontSize=20;exitX=0.983;exitY=0.04;exitDx=0;exitDy=0;strokeColor=#006600;entryX=0.014;entryY=0.952;entryDx=0;entryDy=0;exitPerimeter=0;entryPerimeter=0;" parent="1" source="3" target="11" edge="1">
                    <mxGeometry width="50" height="50" relative="1" as="geometry">
                        <mxPoint x="501.95000000000005" y="121.72000000000003" as="sourcePoint"/>
                        <mxPoint x="478.31000000000006" y="79.24000000000001" as="targetPoint"/>
                    </mxGeometry>
                </mxCell>
                <mxCell id="23" value="" style="endArrow=classic;html=1;fontFamily=Courier New;fontSize=20;exitX=0;exitY=0.75;exitDx=0;exitDy=0;strokeColor=#3333FF;entryX=1;entryY=0.75;entryDx=0;entryDy=0;" edge="1" parent="1" source="11" target="2">
                    <mxGeometry width="50" height="50" relative="1" as="geometry">
                        <mxPoint x="371.95000000000005" y="110.72000000000003" as="sourcePoint"/>
                        <mxPoint x="340" y="60" as="targetPoint"/>
                    </mxGeometry>
                </mxCell>
                <mxCell id="24" value="" style="endArrow=classic;html=1;fontFamily=Courier New;fontSize=20;exitX=1;exitY=0.25;exitDx=0;exitDy=0;strokeColor=#006600;entryX=0;entryY=0.25;entryDx=0;entryDy=0;" edge="1" parent="1" source="2" target="11">
                    <mxGeometry width="50" height="50" relative="1" as="geometry">
                        <mxPoint x="507.78999999999996" y="58.60000000000002" as="sourcePoint"/>
                        <mxPoint x="420" y="50" as="targetPoint"/>
                    </mxGeometry>
                </mxCell>
                <mxCell id="25" value="" style="curved=1;endArrow=classic;html=1;strokeColor=#3333FF;fontFamily=Courier New;fontSize=20;exitX=0.693;exitY=-0.016;exitDx=0;exitDy=0;exitPerimeter=0;" edge="1" parent="1">
                    <mxGeometry width="50" height="50" relative="1" as="geometry">
                        <mxPoint x="300.09000000000003" y="39.35999999999996" as="sourcePoint"/>
                        <mxPoint x="260" y="39" as="targetPoint"/>
                        <Array as="points">
                            <mxPoint x="340" y="10"/>
                            <mxPoint x="220" y="10"/>
                        </Array>
                    </mxGeometry>
                </mxCell>
                <mxCell id="26" value="" style="group" vertex="1" connectable="0" parent="1">
                    <mxGeometry x="90" y="160" width="220" height="144" as="geometry"/>
                </mxCell>
                <mxCell id="22" value="" style="rounded=1;whiteSpace=wrap;html=1;fontFamily=Verdana;fontSize=12;fontColor=#006600;strokeWidth=1;" parent="26" vertex="1">
                    <mxGeometry width="220" height="144" as="geometry"/>
                </mxCell>
                <mxCell id="13" value="&lt;font size=&quot;1&quot; face=&quot;Verdana&quot;&gt;&lt;i style=&quot;font-size: 16px;&quot;&gt;legend&lt;/i&gt;&lt;/font&gt;" style="text;html=1;strokeColor=none;fillColor=none;align=center;verticalAlign=middle;whiteSpace=wrap;rounded=0;fontFamily=Courier New;fontSize=20;" parent="26" vertex="1">
                    <mxGeometry x="80" width="60" height="30" as="geometry"/>
                </mxCell>
                <mxCell id="14" value="&lt;font face=&quot;Courier New&quot;&gt;&lt;span style=&quot;font-size: 20px;&quot;&gt;X&lt;/span&gt;&lt;/font&gt;" style="rounded=1;whiteSpace=wrap;html=1;" parent="26" vertex="1">
                    <mxGeometry x="10" y="44" width="50" height="29" as="geometry"/>
                </mxCell>
                <mxCell id="15" value="" style="endArrow=classic;html=1;fontFamily=Courier New;fontSize=20;exitX=1;exitY=0.5;exitDx=0;exitDy=0;strokeColor=#3333FF;entryX=0;entryY=0.5;entryDx=0;entryDy=0;" parent="26" source="14" target="16" edge="1">
                    <mxGeometry width="50" height="50" relative="1" as="geometry">
                        <mxPoint x="71.95000000000005" y="65.72000000000003" as="sourcePoint"/>
                        <mxPoint x="140" y="64" as="targetPoint"/>
                    </mxGeometry>
                </mxCell>
                <mxCell id="16" value="&lt;font face=&quot;Courier New&quot;&gt;&lt;span style=&quot;font-size: 20px;&quot;&gt;Y&lt;/span&gt;&lt;/font&gt;" style="rounded=1;whiteSpace=wrap;html=1;" parent="26" vertex="1">
                    <mxGeometry x="160" y="44" width="50" height="29" as="geometry"/>
                </mxCell>
                <mxCell id="17" value="&lt;font face=&quot;Courier New&quot;&gt;&lt;span style=&quot;font-size: 20px;&quot;&gt;X&lt;/span&gt;&lt;/font&gt;" style="rounded=1;whiteSpace=wrap;html=1;" parent="26" vertex="1">
                    <mxGeometry x="10" y="104" width="50" height="29" as="geometry"/>
                </mxCell>
                <mxCell id="18" value="&lt;font face=&quot;Courier New&quot;&gt;&lt;span style=&quot;font-size: 20px;&quot;&gt;Y&lt;/span&gt;&lt;/font&gt;" style="rounded=1;whiteSpace=wrap;html=1;" parent="26" vertex="1">
                    <mxGeometry x="160" y="104" width="50" height="29" as="geometry"/>
                </mxCell>
                <mxCell id="19" value="" style="endArrow=classic;html=1;fontFamily=Courier New;fontSize=20;exitX=1;exitY=0.5;exitDx=0;exitDy=0;strokeColor=#006600;entryX=0;entryY=0.5;entryDx=0;entryDy=0;" parent="26" source="17" target="18" edge="1">
                    <mxGeometry width="50" height="50" relative="1" as="geometry">
                        <mxPoint x="81.95000000000005" y="125.72000000000003" as="sourcePoint"/>
                        <mxPoint x="58.309999999999945" y="83.24000000000001" as="targetPoint"/>
                    </mxGeometry>
                </mxCell>
                <mxCell id="20" value="&lt;font style=&quot;font-size: 12px;&quot; color=&quot;#3333ff&quot;&gt;is of type&lt;/font&gt;" style="text;html=1;strokeColor=none;fillColor=none;align=center;verticalAlign=middle;whiteSpace=wrap;rounded=0;fontFamily=Verdana;fontSize=20;" parent="26" vertex="1">
                    <mxGeometry x="60" y="30" width="100" height="30" as="geometry"/>
                </mxCell>
                <mxCell id="21" value="&lt;font color=&quot;#006600&quot; style=&quot;font-size: 12px;&quot;&gt;has base class&lt;/font&gt;" style="text;html=1;strokeColor=none;fillColor=none;align=center;verticalAlign=middle;whiteSpace=wrap;rounded=0;fontFamily=Verdana;fontSize=20;" parent="26" vertex="1">
                    <mxGeometry x="60" y="90" width="100" height="30" as="geometry"/>
                </mxCell>
            </root>
        </mxGraphModel>
    </diagram>
</mxfile>